<svg id="arrange_logo" xmlns="http://www.w3.org/2000/svg" width="135.402" height="135.402" viewBox="0 0 135.402 135.402">
  <path id="Path_3" data-name="Path 3" d="M2.81,198.09H137.242v41.167a25.88,25.88,0,0,1-25.88,25.88H28.69a25.88,25.88,0,0,1-25.88-25.88V198.09Z" transform="translate(-1.84 -129.735)" fill="#fff"/>
  <path id="Path_4" data-name="Path 4" d="M193.322,125.623V57.92H57.92v67.7h11.9l27.3,29.676a47.83,47.83,0,0,1,7.478-4.6l-10.649-25.09Z" transform="translate(-57.92 -57.92)" fill="#4285f4"/>
  <g id="Group_2" data-name="Group 2" transform="translate(20.176 86.205)">
    <g id="Group_1" data-name="Group 1" transform="translate(40.549 8.62)">
      <path id="Path_5" data-name="Path 5" d="M237.73,344.764h-1.508v-9.641H233.9v-.911l2.778-.942h1.035Z" transform="translate(-233.9 -333.08)" fill="#4285f4"/>
      <path id="Path_6" data-name="Path 6" d="M259.347,335.971c0,1.774-.973,2.968-3.565,5.152l-2.277,1.932h5.921V344.4H251.59V342.91l2.857-2.433c2.578-2.181,3.361-3.078,3.361-4.365a1.954,1.954,0,0,0-2.184-2.008,2.127,2.127,0,0,0-2.384,2.212H251.7c.155-2.26,1.335-3.6,4.02-3.6C258,332.72,259.347,334.118,259.347,335.971Z" transform="translate(-245.486 -332.72)" fill="#4285f4"/>
    </g>
    <path id="Path_7" data-name="Path 7" d="M193.146,356l-8.8-20.728a44.808,44.808,0,0,0-6.556,4.023Z" transform="translate(-156.603 -325.77)" fill="#4285f4"/>
    <path id="Path_8" data-name="Path 8" d="M345.457,327.951l11.732-9.034L344.325,307.74l-8.185,11.042A47.936,47.936,0,0,1,345.457,327.951Z" transform="translate(-260.311 -307.74)" fill="#4285f4"/>
    <path id="Path_9" data-name="Path 9" d="M280.532,347.08,254.12,382.7l35.121-27.06A44.6,44.6,0,0,0,280.532,347.08Z" transform="translate(-206.594 -333.505)" fill="#4285f4"/>
    <path id="Path_10" data-name="Path 10" d="M355.9,368.236a44.141,44.141,0,0,1,9.244,27.06H368.3a47.274,47.274,0,0,0-9.9-28.986Z" transform="translate(-273.253 -346.099)" fill="#4285f4"/>
    <path id="Path_11" data-name="Path 11" d="M214.228,312.59A47.236,47.236,0,0,0,193.21,317.5l1.235,2.912a44.255,44.255,0,0,1,46.194,4.075l1.881-2.536A47.275,47.275,0,0,0,214.228,312.59Z" transform="translate(-166.702 -310.916)" fill="#4285f4"/>
    <path id="Path_12" data-name="Path 12" d="M116.39,378.169h3.161A44.326,44.326,0,0,1,137.568,342.5l-2.147-2.338A47.482,47.482,0,0,0,116.39,378.169Z" transform="translate(-116.39 -328.973)" fill="#4285f4"/>
  </g>
  <g id="Group_4" data-name="Group 4" transform="translate(9.538 29.583)">
    <path id="Path_13" data-name="Path 13" d="M222.84,159.974c0-2.253,1.035-3.482,2.988-3.482h9.124v-1.063c0-.9-.117-1.035-.883-1.035H223.506V151.53h11.07c1.932,0,2.985,1.228,2.985,3.492v7.022h0v2.208H225.828c-1.936,0-2.988-1.225-2.988-3.489Zm2.612.4c0,.883.117,1.018.883,1.018h8.627v-2.043h-8.616c-.776.01-.894.155-.894,1.035Z" transform="translate(-175.469 -148.811)" fill="#fff"/>
    <path id="Path_14" data-name="Path 14" d="M397.181,155.052v4.3h-12.2v1.035c0,.9.117,1.035.887,1.035h11.315v2.864H385.245c-1.943,0-3-1.225-3-3.489v-5.745c0-2.264,1.052-3.492,3-3.492h8.941C396.122,151.56,397.181,152.788,397.181,155.052Zm-2.729,1.442v-1.035c0-.9-.117-1.035-.89-1.035h-7.7c-.769,0-.887.135-.887,1.035v1.035Z" transform="translate(-279.871 -148.83)" fill="#fff"/>
    <path id="Path_15" data-name="Path 15" d="M343.583,150.329V147.6h-2.73v1.38h-9.662c-1.939,0-2.992,1.228-2.992,3.492v.787c0,2.253,1.035,3.482,2.992,3.482h9.662V157.8c0,.9-.117,1.035-.89,1.035H329.511V161.7h11.07c1.936,0,2.988-1.225,2.988-3.489v-6.384H340.84v2.043h-9.134c-.763,0-.887-.145-.887-1.035s.124-1.018.887-1.018h9.148v-1.5Z" transform="translate(-244.472 -146.237)" fill="#fff"/>
    <g id="Group_3" data-name="Group 3" transform="translate(65.339 1.18)">
      <rect id="Rectangle_9" data-name="Rectangle 9" width="2.729" height="9.862" transform="translate(0 4.413)" fill="#fff"/>
      <path id="Path_16" data-name="Path 16" d="M287.167,148.619h-9.527V147.07H274.91v2.736h2.729v1.684h8.9c.766,0,.89.135.89,1.035v8.827h2.729v-9.241C290.162,149.848,289.089,148.619,287.167,148.619Z" transform="translate(-274.91 -147.07)" fill="#fff"/>
    </g>
    <path id="Path_17" data-name="Path 17" d="M96.133,143.65H93.3L85.56,158.609v.507h2.892l3.965-7.592v2.6h5.914l2.619,5h2.916v-.514Zm-3.654,7.73,2.2-4.231L96.9,151.38Z" transform="translate(-85.56 -143.65)" fill="#fff"/>
    <path id="Path_18" data-name="Path 18" d="M197.06,151.31h-7.284c-1.932,0-3,1.225-3,3.489v9.238h2.73v-8.827c0-.9.117-1.035.89-1.035h6.66Z" transform="translate(-151.852 -148.667)" fill="#fff"/>
    <path id="Path_19" data-name="Path 19" d="M158.21,151.56h-7.284c-1.936,0-3,1.228-3,3.492v9.234h2.729v-8.827c0-.9.117-1.035.887-1.035h6.663Z" transform="translate(-126.408 -148.83)" fill="#fff"/>
  </g>
</svg>
