<svg id="arrange_logo" xmlns="http://www.w3.org/2000/svg" width="251.532" height="251.532" viewBox="0 0 251.532 251.532">
  <path id="Path_3" data-name="Path 3" d="M2.81,198.09H252.541v76.474a48.077,48.077,0,0,1-48.077,48.077H50.887A48.077,48.077,0,0,1,2.81,274.564V198.09Z" transform="translate(-1.009 -71.109)" fill="#4285f4"/>
  <path id="Path_4" data-name="Path 4" d="M309.452,183.689V57.92H57.92V183.689H80.035l50.718,55.128a88.854,88.854,0,0,1,13.891-8.545l-19.782-46.609Z" transform="translate(-57.92 -57.92)" fill="#fafafa"/>
  <g id="Group_2" data-name="Group 2" transform="translate(37.481 160.141)">
    <g id="Group_1" data-name="Group 1" transform="translate(75.327 16.013)">
      <path id="Path_5" data-name="Path 5" d="M241.015,354.623h-2.8v-17.91H233.9V335.02l5.16-1.75h1.923Z" transform="translate(-233.9 -332.918)" fill="#fff"/>
      <path id="Path_6" data-name="Path 6" d="M266,338.758c0,3.295-1.808,5.513-6.622,9.57l-4.231,3.59h11v2.506H251.59V351.65l5.308-4.519c4.788-4.051,6.244-5.718,6.244-8.109,0-2.276-1.545-3.731-4.058-3.731-2.942,0-4.224,1.545-4.43,4.109H251.8c.288-4.2,2.481-6.68,7.468-6.68C263.494,332.72,266,335.316,266,338.758Z" transform="translate(-240.25 -332.72)" fill="#fff"/>
    </g>
    <path id="Path_7" data-name="Path 7" d="M206.316,373.776,189.969,335.27a83.237,83.237,0,0,0-12.179,7.474Z" transform="translate(-138.431 -317.623)" fill="#fafafa"/>
    <path id="Path_8" data-name="Path 8" d="M353.448,345.285,375.243,328.5l-23.9-20.763L336.14,328.253A89.044,89.044,0,0,1,353.448,345.285Z" transform="translate(-195.275 -307.74)" fill="#fafafa"/>
    <path id="Path_9" data-name="Path 9" d="M303.184,347.08,254.12,413.253l65.244-50.269A82.854,82.854,0,0,0,303.184,347.08Z" transform="translate(-165.832 -321.862)" fill="#fafafa"/>
    <path id="Path_10" data-name="Path 10" d="M355.9,369.887a82,82,0,0,1,17.173,50.269h5.865a87.82,87.82,0,0,0-18.4-53.846Z" transform="translate(-202.368 -328.765)" fill="#fff"/>
    <path id="Path_11" data-name="Path 11" d="M232.255,312.59a87.75,87.75,0,0,0-39.045,9.128l2.295,5.41a82.212,82.212,0,0,1,85.814,7.57l3.494-4.712A87.821,87.821,0,0,0,232.255,312.59Z" transform="translate(-143.966 -309.481)" fill="#fafafa"/>
    <path id="Path_12" data-name="Path 12" d="M116.39,410.769h5.872A82.343,82.343,0,0,1,155.731,344.5l-3.989-4.343A88.205,88.205,0,0,0,116.39,410.769Z" transform="translate(-116.39 -319.378)" fill="#fafafa"/>
  </g>
  <g id="Group_4" data-name="Group 4" transform="translate(17.718 54.955)">
    <path id="Path_13" data-name="Path 13" d="M222.84,167.216c0-4.186,1.923-6.468,5.551-6.468H245.34v-1.974c0-1.673-.218-1.923-1.641-1.923H224.077V151.53h20.564c3.59,0,5.545,2.282,5.545,6.487v13.045h0v4.1H228.391c-3.6,0-5.551-2.276-5.551-6.481Zm4.853.744c0,1.641.218,1.891,1.641,1.891h16.026v-3.795H229.353c-1.442.019-1.66.288-1.66,1.923Z" transform="translate(-134.84 -146.479)" fill="#4285f4"/>
    <path id="Path_14" data-name="Path 14" d="M409.987,158.047v7.987H387.32v1.923c0,1.673.218,1.923,1.647,1.923h21.019v5.32H387.814c-3.609,0-5.564-2.276-5.564-6.481V158.047c0-4.205,1.955-6.487,5.564-6.487h16.609C408.019,151.56,409.987,153.842,409.987,158.047Zm-5.071,2.679V158.8c0-1.673-.218-1.923-1.654-1.923H388.968c-1.429,0-1.647.25-1.647,1.923v1.923Z" transform="translate(-192.064 -146.489)" fill="#4285f4"/>
    <path id="Path_15" data-name="Path 15" d="M356.777,152.671V147.6h-5.07v2.564H333.758c-3.6,0-5.558,2.282-5.558,6.487v1.462c0,4.186,1.923,6.468,5.558,6.468h17.949v1.974c0,1.673-.218,1.923-1.654,1.923H330.636v5.32H351.2c3.6,0,5.551-2.276,5.551-6.481V155.459h-5.07v3.795H334.713c-1.417,0-1.647-.269-1.647-1.923s.231-1.891,1.647-1.891h16.994v-2.788Z" transform="translate(-172.662 -145.068)" fill="#4285f4"/>
    <g id="Group_3" data-name="Group 3" transform="translate(121.378 2.192)">
      <rect id="Rectangle_9" data-name="Rectangle 9" width="5.071" height="18.321" transform="translate(0 8.199)" fill="#4285f4"/>
      <path id="Path_16" data-name="Path 16" d="M297.679,149.948h-17.7V147.07h-5.07v5.083h5.07v3.128h16.539c1.423,0,1.654.25,1.654,1.923v16.4h5.07V156.435C303.243,152.23,301.25,149.948,297.679,149.948Z" transform="translate(-274.91 -147.07)" fill="#4285f4"/>
    </g>
    <path id="Path_17" data-name="Path 17" d="M105.2,143.65H99.945L85.56,171.438v.942h5.372l7.365-14.1v4.827h10.987l4.865,9.288h5.417v-.955Zm-6.788,14.359,4.1-7.859,4.115,7.859Z" transform="translate(-85.56 -143.65)" fill="#4285f4"/>
    <path id="Path_18" data-name="Path 18" d="M205.876,151.31H192.344c-3.59,0-5.564,2.276-5.564,6.481v17.16h5.071v-16.4c0-1.673.218-1.923,1.654-1.923h12.372Z" transform="translate(-121.895 -146.4)" fill="#4285f4"/>
    <path id="Path_19" data-name="Path 19" d="M167.026,151.56H153.494c-3.6,0-5.564,2.282-5.564,6.487V175.2H153V158.8c0-1.673.218-1.923,1.647-1.923h12.378Z" transform="translate(-107.949 -146.489)" fill="#4285f4"/>
  </g>
</svg>
